<svg width="400" height="401" viewBox="0 0 400 401" fill="none" xmlns="http://www.w3.org/2000/svg">
<path d="M272.698 226.401C257.378 221.865 242.909 218.227 228.986 215.408C228.881 216.245 228.824 217.086 228.816 217.929V348.857C228.815 354.676 231.126 360.257 235.239 364.373C239.353 368.489 244.933 370.802 250.752 370.803C253.634 370.804 256.488 370.236 259.151 369.134C261.814 368.031 264.233 366.415 266.271 364.377C268.309 362.339 269.926 359.919 271.029 357.256C272.131 354.593 272.699 351.739 272.698 348.857V226.401Z" fill="#9D52EB"/>
<path d="M231.766 195.256C245.893 198.031 260.487 201.61 275.798 206.05L310.799 67.7965C312.274 61.9682 311.373 55.7928 308.295 50.6287C305.216 45.4646 300.213 41.7347 294.385 40.2596C292.463 39.7743 290.486 39.5431 288.505 39.5719C283.517 39.6415 278.692 41.3541 274.777 44.4442C270.861 47.5343 268.074 51.8295 266.848 56.6641L231.766 195.256Z" fill="#9D52EB"/>
<path d="M100.33 191.13C115.729 189.227 130.722 188.044 145.667 187.702L120.821 47.6047C119.864 42.2 116.974 37.3276 112.691 33.8952C108.408 30.4628 103.023 28.7045 97.5396 28.9478C96.5535 28.9931 95.5713 29.103 94.5995 29.2766C91.6736 29.7953 88.8784 30.8853 86.3738 32.4843C83.8691 34.0833 81.704 36.1601 80.002 38.5959C78.3001 41.0318 77.0946 43.7791 76.4545 46.6809C75.8144 49.5827 75.7522 52.5822 76.2714 55.508L100.33 191.13Z" fill="#9D52EB"/>
<path d="M38.9575 201.704C54.5543 198.403 69.4346 195.611 83.8758 193.402C83.8185 193.105 83.7554 192.81 83.6864 192.515L61.0329 96.7986C59.8759 91.9094 57.1382 87.5385 53.2443 84.3635C49.3504 81.1886 44.5178 79.3869 39.4957 79.2379C37.501 79.1805 35.5073 79.3849 33.5658 79.8458C27.6759 81.2411 22.5812 84.9185 19.4021 90.0693C16.2231 95.2201 15.2198 101.423 16.613 107.313L38.9575 201.704Z" fill="#9D52EB"/>
<path d="M84.1449 213.913C69.9566 216.194 55.2096 219.065 39.5854 222.444V318.201C39.5865 324.108 41.9337 329.773 46.1107 333.95C50.2878 338.127 55.9528 340.474 61.8601 340.476C64.786 340.476 67.6833 339.901 70.3867 338.782C73.0901 337.663 75.5466 336.022 77.6159 333.954C79.6853 331.885 81.327 329.43 82.4472 326.727C83.5674 324.024 84.1443 321.127 84.1449 318.201V213.913Z" fill="#9D52EB"/>
<path d="M147.939 207.814C132.817 208.1 117.62 209.317 101.865 211.342V363.189C101.866 369.329 104.306 375.217 108.647 379.558C112.989 383.9 118.877 386.34 125.017 386.341C131.157 386.34 137.045 383.9 141.386 379.558C145.728 375.217 148.168 369.329 148.169 363.189V210.843C148.159 209.83 148.082 208.817 147.939 207.814Z" fill="#9D52EB"/>
<path d="M210.109 212.029C195.106 209.716 180.616 208.389 166.228 207.933V377.959C166.229 383.776 168.541 389.355 172.654 393.468C176.768 397.582 182.346 399.893 188.164 399.895C193.983 399.896 199.564 397.585 203.679 393.472C207.795 389.358 210.108 383.778 210.109 377.959V212.029Z" fill="#9D52EB"/>
<path d="M225.039 1.03204C220.064 1.29652 215.316 3.195 211.53 6.43309C207.744 9.67119 205.132 14.0679 204.1 18.9416L168.331 187.841C183.218 188.36 198.233 189.747 213.707 192.107L248.38 28.3199C249.624 22.448 248.484 16.3226 245.211 11.2911C241.938 6.25972 236.801 2.73435 230.929 1.49049C228.994 1.08097 227.014 0.926842 225.039 1.03204Z" fill="#9D52EB"/>
<path d="M291.549 274.045V305.07V336.106L378.116 249.538C380.155 247.5 381.771 245.081 382.875 242.419C383.978 239.756 384.545 236.902 384.545 234.02C384.545 231.138 383.978 228.285 382.875 225.622C381.771 222.959 380.155 220.54 378.116 218.503C374.004 214.389 368.426 212.077 362.609 212.074C359.727 212.074 356.873 212.642 354.211 213.745C351.548 214.848 349.129 216.465 347.091 218.503L291.549 274.045Z" fill="#9D52EB"/>
</svg>
