<svg width="400" height="400" viewBox="0 0 400 400" fill="none" xmlns="http://www.w3.org/2000/svg">
<path d="M272.425 225.953C257.105 221.417 242.636 217.78 228.713 214.96C228.608 215.797 228.551 216.639 228.543 217.482V348.41C228.542 354.229 230.853 359.81 234.967 363.925C239.08 368.041 244.66 370.354 250.479 370.356C253.361 370.356 256.216 369.789 258.878 368.686C261.541 367.583 263.961 365.967 265.999 363.929C268.037 361.891 269.653 359.471 270.756 356.809C271.859 354.146 272.426 351.292 272.425 348.41V225.953Z" fill="#BF0A30"/>
<path d="M231.493 194.809C245.621 197.583 260.214 201.162 275.525 205.602L310.527 67.349C312.001 61.5207 311.1 55.3453 308.022 50.1812C304.944 45.0171 299.94 41.2872 294.112 39.812C292.19 39.3267 290.214 39.0955 288.232 39.1243C283.244 39.194 278.419 40.9065 274.504 43.9967C270.589 47.0868 267.802 51.3819 266.575 56.2166L231.493 194.809Z" fill="#BF0A30"/>
<path d="M100.057 190.683C115.457 188.78 130.449 187.597 145.394 187.254L120.548 47.1573C119.591 41.7526 116.702 36.8802 112.418 33.4477C108.135 30.0153 102.75 28.257 97.2669 28.5003C96.2807 28.5456 95.2986 28.6555 94.3267 28.8292C91.4008 29.3478 88.6057 30.4378 86.101 32.0368C83.5964 33.6358 81.4312 35.7126 79.7292 38.1485C78.0273 40.5843 76.8218 43.3316 76.1817 46.2334C75.5416 49.1352 75.4794 52.1347 75.9986 55.0606L100.057 190.683Z" fill="#BF0A30"/>
<path d="M38.6847 201.257C54.2816 197.956 69.1618 195.163 83.603 192.955C83.5458 192.658 83.4826 192.362 83.4137 192.068L60.7602 96.351C59.6031 91.4618 56.8654 87.0909 52.9715 83.916C49.0776 80.741 44.245 78.9393 39.223 78.7903C37.2282 78.7329 35.2346 78.9373 33.293 79.3983C27.4031 80.7936 22.3085 84.4709 19.1294 89.6218C15.9503 94.7726 14.947 100.975 16.3402 106.866L38.6847 201.257Z" fill="#BF0A30"/>
<path d="M83.8721 213.466C69.6838 215.746 54.9368 218.617 39.3126 221.997V317.753C39.3137 323.661 41.6609 329.326 45.8379 333.503C50.015 337.68 55.68 340.027 61.5873 340.028C64.5132 340.029 67.4105 339.453 70.1139 338.334C72.8173 337.215 75.2738 335.575 77.3431 333.506C79.4125 331.438 81.0542 328.982 82.1744 326.279C83.2946 323.576 83.8715 320.679 83.8721 317.753V213.466Z" fill="#BF0A30"/>
<path d="M147.667 207.366C132.545 207.652 117.348 208.869 101.592 210.894V362.741C101.593 368.881 104.033 374.769 108.374 379.111C112.716 383.452 118.604 385.892 124.744 385.893C130.884 385.892 136.772 383.452 141.114 379.111C145.455 374.769 147.895 368.881 147.896 362.741V210.396C147.886 209.382 147.809 208.37 147.667 207.366Z" fill="#BF0A30"/>
<path d="M209.837 211.582C194.834 209.269 180.343 207.942 165.955 207.486V377.511C165.956 383.329 168.268 388.907 172.381 393.021C176.495 397.134 182.073 399.446 187.891 399.447C193.71 399.448 199.291 397.138 203.406 393.024C207.522 388.911 209.835 383.33 209.837 377.511V211.582Z" fill="#BF0A30"/>
<path d="M224.766 0.584532C219.791 0.849006 215.043 2.74749 211.257 5.98558C207.471 9.22368 204.859 13.6204 203.827 18.494L168.058 187.394C182.946 187.913 197.96 189.3 213.434 191.659L248.107 27.8724C249.351 22.0004 248.211 15.8751 244.938 10.8436C241.665 5.81221 236.528 2.28684 230.656 1.04298C228.721 0.633461 226.741 0.479332 224.766 0.584532Z" fill="#BF0A30"/>
<path d="M291.276 273.598V304.623V335.658L377.844 249.09C379.882 247.053 381.499 244.634 382.602 241.971C383.705 239.309 384.273 236.455 384.273 233.573C384.273 230.691 383.705 227.837 382.602 225.175C381.499 222.512 379.882 220.093 377.844 218.055C373.731 213.942 368.153 211.629 362.336 211.627C359.454 211.627 356.6 212.195 353.938 213.298C351.275 214.4 348.856 216.017 346.819 218.055L291.276 273.598Z" fill="#BF0A30"/>
</svg>
